<?xml version="1.0" encoding="UTF-8" standalone="no"?>
<svg
   version="1.1"
   id="Radio_Inactive"
   x="0"
   y="0"
   viewBox="0 0 300 300"
   style="enable-background:new 0 0 300 300"
   xml:space="preserve"
   sodipodi:docname="radio(1).svg"
   inkscape:version="1.2.1 (9c6d41e, 2022-07-14)"
   xmlns:inkscape="http://www.inkscape.org/namespaces/inkscape"
   xmlns:sodipodi="http://sodipodi.sourceforge.net/DTD/sodipodi-0.dtd"
   xmlns:xlink="http://www.w3.org/1999/xlink"
   xmlns="http://www.w3.org/2000/svg"
   xmlns:svg="http://www.w3.org/2000/svg"
   xmlns:i="&amp;#38;#38;#38;ns_ai;"><sodipodi:namedview
     id="namedview757"
     pagecolor="#ffffff"
     bordercolor="#000000"
     borderopacity="0.25"
     inkscape:showpageshadow="2"
     inkscape:pageopacity="0.0"
     inkscape:pagecheckerboard="0"
     inkscape:deskcolor="#d1d1d1"
     showgrid="false"
     inkscape:zoom="1.6766667"
     inkscape:cx="150"
     inkscape:cy="150"
     inkscape:window-width="1006"
     inkscape:window-height="723"
     inkscape:window-x="0"
     inkscape:window-y="25"
     inkscape:window-maximized="0"
     inkscape:current-layer="g5198" /><defs
     id="defs5317"><linearGradient
       id="linearGradient1003"
       gradientUnits="userSpaceOnUse"
       x1="4.0481"
       y1="287.94919"
       x2="320.4859"
       y2="-15.4029"
       gradientTransform="matrix(1 .00546 -.00546 1 -2.02 -3.021)"
       xlink:href="#SVGID_13_"><stop
         offset="0"
         style="stop-color:#00addc"
         id="stop5201-6" /><stop
         offset="1"
         style="stop-color:#6bfbff"
         id="stop5203-7" /></linearGradient><linearGradient
       xlink:href="#SVGID_1_"
       id="linearGradient1045"
       x1="30.090242"
       y1="253.94873"
       x2="307.1037"
       y2="0.93949926"
       gradientUnits="userSpaceOnUse" /><linearGradient
       xlink:href="#SVGID_1_"
       id="linearGradient1047"
       x1="117.68729"
       y1="153.11029"
       x2="-22.672882"
       y2="-6.6897058"
       gradientUnits="userSpaceOnUse" /><linearGradient
       xlink:href="#SVGID_1_"
       id="linearGradient1049"
       x1="117.68729"
       y1="3.2289176"
       x2="-22.672882"
       y2="163.02892"
       gradientUnits="userSpaceOnUse" /><linearGradient
       xlink:href="#SVGID_1_"
       id="linearGradient840"
       gradientUnits="userSpaceOnUse"
       x1="117.68729"
       y1="153.11029"
       x2="-22.672882"
       y2="-6.6897058"
       gradientTransform="matrix(0,1.71244,-1.64683,0,288.732,46.315)" /><linearGradient
       xlink:href="#SVGID_1_"
       id="linearGradient842"
       gradientUnits="userSpaceOnUse"
       x1="117.68729"
       y1="153.11029"
       x2="-22.672882"
       y2="-6.6897058"
       gradientTransform="matrix(0,1.71244,-1.64683,0,288.732,46.315)" /><linearGradient
       xlink:href="#SVGID_1_"
       id="linearGradient844"
       gradientUnits="userSpaceOnUse"
       x1="117.68729"
       y1="153.11029"
       x2="-22.672882"
       y2="-6.6897058"
       gradientTransform="matrix(0,1.71244,-1.64683,0,288.732,46.315)" /><linearGradient
       xlink:href="#SVGID_1_"
       id="linearGradient846"
       gradientUnits="userSpaceOnUse"
       x1="117.68729"
       y1="153.11029"
       x2="-22.672882"
       y2="-6.6897058" /><linearGradient
       xlink:href="#SVGID_1_"
       id="linearGradient848"
       gradientUnits="userSpaceOnUse"
       x1="117.68729"
       y1="153.11029"
       x2="-22.672882"
       y2="-6.6897058" /><linearGradient
       xlink:href="#SVGID_1_"
       id="linearGradient850"
       gradientUnits="userSpaceOnUse"
       x1="117.68729"
       y1="3.2289176"
       x2="-22.672882"
       y2="163.02892"
       gradientTransform="matrix(0,1.71244,1.64683,0,31.268,46.315)" /><linearGradient
       xlink:href="#SVGID_1_"
       id="linearGradient852"
       gradientUnits="userSpaceOnUse"
       x1="117.68729"
       y1="3.2289176"
       x2="-22.672882"
       y2="163.02892"
       gradientTransform="matrix(0,1.71244,1.64683,0,31.268,46.315)" /><linearGradient
       xlink:href="#SVGID_1_"
       id="linearGradient854"
       gradientUnits="userSpaceOnUse"
       x1="117.68729"
       y1="3.2289176"
       x2="-22.672882"
       y2="163.02892"
       gradientTransform="matrix(0,1.71244,1.64683,0,31.268,46.315)" /><linearGradient
       xlink:href="#SVGID_1_"
       id="linearGradient856"
       gradientUnits="userSpaceOnUse"
       x1="117.68729"
       y1="3.2289176"
       x2="-22.672882"
       y2="163.02892" /><linearGradient
       xlink:href="#SVGID_1_"
       id="linearGradient858"
       gradientUnits="userSpaceOnUse"
       x1="117.68729"
       y1="3.2289176"
       x2="-22.672882"
       y2="163.02892" /></defs><style
     type="text/css"
     id="style5192">.st0{fill:#fff}.st4{fill:url(#SVGID_1_)}</style><switch
     id="switch5194"
     transform="matrix(1.33078 0 0 1.33143 -62.925 -27.946)"><g
       i:extraneous="self"
       id="g5196"><g
         id="g5198"><linearGradient
           id="SVGID_1_"
           gradientUnits="userSpaceOnUse"
           x1="4.0481"
           y1="287.94919"
           x2="320.4859"
           y2="-15.4029"
           gradientTransform="matrix(1 .00546 -.00546 1 -2.02 -3.021)"
           xlink:href="#SVGID_13_"><stop
             offset="0"
             style="stop-color:#00addc"
             id="stop5201" /><stop
             offset="1"
             style="stop-color:#6bfbff"
             id="stop5203" /></linearGradient><path
           class="st4"
           d="M160 238.8h-.6c-58-.3-104.9-47.7-104.6-105.7.4-57.8 47.5-104.6 105.2-104.6h.6c58 .3 104.9 47.7 104.6 105.7-.4 57.8-47.5 104.6-105.2 104.6Zm0-206.6c-55.7 0-101.2 45.2-101.5 100.9-.3 55.9 45 101.7 100.9 102h.6c55.7 0 101.2-45.2 101.5-100.9.3-55.9-45-101.7-100.9-102h-.6z"
           id="path5205"
           style="fill:url(#linearGradient1045);fill-opacity:1" /><path
           class="st0"
           d="m 234.71598,131.25202 c 0.32936,18.49436 -7.08137,36.30373 -22.06753,53.08564 l 2.63493,2.73991 c 15.80957,-17.46689 23.71435,-36.30373 23.22031,-55.82555 -0.65874,-26.02908 -15.48021,-46.064632 -22.89094,-54.455588 l -2.63493,2.739904 c 7.08137,8.048468 21.24411,27.399044 21.73816,51.715684 z"
           id="path10"
           style="fill:url(#linearGradient840);fill-opacity:1;stroke-width:1.67931" /><path
           class="st0"
           d="m 196.83889,95.97576 -2.63493,2.739904 c 4.44644,4.966076 13.504,17.295646 13.83337,32.707606 0.32937,11.81583 -4.44644,22.94669 -13.99805,33.56382 l 2.47024,2.91115 c 10.37503,-11.47335 15.4802,-23.80292 15.15084,-36.47497 -0.32937,-17.1244 -10.04567,-30.13895 -14.82147,-35.44751 z"
           id="path12"
           style="fill:url(#linearGradient842);fill-opacity:1;stroke-width:1.67931" /><path
           class="st0"
           d="m 184.15829,131.59451 c -0.16468,-8.04847 -5.43453,-14.04201 -6.91668,-15.41196 l -2.63493,2.73991 c 1.15278,1.1987 5.59922,6.16478 5.76391,12.8433 0,4.45234 -1.9762,9.07593 -6.09327,13.18578 l 2.63492,2.73991 c 4.94049,-4.96608 7.24605,-10.27464 7.24605,-16.09694 z"
           id="path14"
           style="fill:url(#linearGradient844);fill-opacity:1;stroke-width:1.67931" /><path
           class="st0"
           d="m 85.284024,131.25202 c -0.329366,18.49436 7.081369,36.30373 22.067526,53.08564 l -2.63493,2.73991 C 88.90705,169.61068 81.002266,150.77384 81.496315,131.25202 82.155047,105.22294 96.976517,85.187388 104.38725,76.796432 l 2.63493,2.739904 C 99.940811,87.584804 85.778073,106.93538 85.284024,131.25202 Z"
           id="path10-7"
           style="fill:url(#linearGradient850);fill-opacity:1;stroke-width:1.67931" /><path
           class="st0"
           d="m 123.16111,95.97576 2.63493,2.739904 c -4.44644,4.966076 -13.504,17.295646 -13.83337,32.707606 -0.32937,11.81583 4.44644,22.94669 13.99805,33.56382 l -2.47024,2.91115 c -10.37503,-11.47335 -15.4802,-23.80292 -15.15084,-36.47497 0.32937,-17.1244 10.04567,-30.13895 14.82147,-35.44751 z"
           id="path12-0"
           style="fill:url(#linearGradient852);fill-opacity:1;stroke-width:1.67931" /><path
           class="st0"
           d="m 135.8417,131.59451 c 0.16469,-8.04847 5.43454,-14.04201 6.91669,-15.41196 l 2.63493,2.73991 c -1.15278,1.1987 -5.59922,6.16478 -5.76391,12.8433 0,4.45234 1.9762,9.07593 6.09328,13.18578 l -2.63493,2.73991 c -4.94049,-4.96608 -7.24605,-10.27464 -7.24606,-16.09694 z"
           id="path14-9"
           style="fill:url(#linearGradient854);fill-opacity:1;stroke-width:1.67931" /></g></g></switch></svg>
